<svg width="1400" height="860" viewBox="0 0 1400 860" fill="none" xmlns="http://www.w3.org/2000/svg">
  <rect width="1400" height="860" rx="28" fill="#F4F1EA"/>
  <rect x="32" y="32" width="1336" height="796" rx="22" fill="#FFFDF9" stroke="#D9D1C5"/>
  <rect x="64" y="64" width="1272" height="72" rx="16" fill="#1A1A2E"/>
  <text x="92" y="108" fill="#FFFFFF" font-family="Arial, sans-serif" font-size="28" font-weight="700">reddit-intel report preview</text>
  <text x="920" y="108" fill="#D8D8E6" font-family="Arial, sans-serif" font-size="20">Notion | Last 30 days | 168 posts</text>

  <rect x="64" y="164" width="292" height="110" rx="16" fill="#F8D7DA"/>
  <text x="88" y="206" fill="#721C24" font-family="Arial, sans-serif" font-size="22" font-weight="700">Negative signals</text>
  <text x="88" y="242" fill="#721C24" font-family="Arial, sans-serif" font-size="42" font-weight="700">43%</text>

  <rect x="374" y="164" width="292" height="110" rx="16" fill="#D4EDDA"/>
  <text x="398" y="206" fill="#155724" font-family="Arial, sans-serif" font-size="22" font-weight="700">Competitors mentioned</text>
  <text x="398" y="242" fill="#155724" font-family="Arial, sans-serif" font-size="42" font-weight="700">Obsidian · Coda</text>

  <rect x="684" y="164" width="292" height="110" rx="16" fill="#FFF3CD"/>
  <text x="708" y="206" fill="#856404" font-family="Arial, sans-serif" font-size="22" font-weight="700">Top complaint</text>
  <text x="708" y="242" fill="#856404" font-family="Arial, sans-serif" font-size="28" font-weight="700">Pricing + offline sync</text>

  <rect x="994" y="164" width="342" height="110" rx="16" fill="#E7EEF9"/>
  <text x="1018" y="206" fill="#1E3A5F" font-family="Arial, sans-serif" font-size="22" font-weight="700">Next action</text>
  <text x="1018" y="242" fill="#1E3A5F" font-family="Arial, sans-serif" font-size="24" font-weight="700">Review migration pain points</text>

  <rect x="64" y="308" width="860" height="476" rx="18" fill="#FFFFFF" stroke="#D9D1C5"/>
  <rect x="64" y="308" width="860" height="56" rx="18" fill="#1A1A2E"/>
  <text x="88" y="344" fill="#FFFFFF" font-family="Arial, sans-serif" font-size="22" font-weight="700">Sheet 1: structured post data</text>

  <rect x="84" y="384" width="180" height="42" fill="#F7F7FA"/>
  <rect x="264" y="384" width="160" height="42" fill="#F7F7FA"/>
  <rect x="424" y="384" width="180" height="42" fill="#F7F7FA"/>
  <rect x="604" y="384" width="120" height="42" fill="#F7F7FA"/>
  <rect x="724" y="384" width="180" height="42" fill="#F7F7FA"/>
  <text x="98" y="411" fill="#222222" font-family="Arial, sans-serif" font-size="18" font-weight="700">Title (ZH)</text>
  <text x="280" y="411" fill="#222222" font-family="Arial, sans-serif" font-size="18" font-weight="700">Intent</text>
  <text x="438" y="411" fill="#222222" font-family="Arial, sans-serif" font-size="18" font-weight="700">Category</text>
  <text x="620" y="411" fill="#222222" font-family="Arial, sans-serif" font-size="18" font-weight="700">Sentiment</text>
  <text x="740" y="411" fill="#222222" font-family="Arial, sans-serif" font-size="18" font-weight="700">Action item</text>

  <rect x="84" y="434" width="820" height="64" fill="#FFFFFF"/>
  <rect x="84" y="498" width="820" height="64" fill="#F8F9FA"/>
  <rect x="84" y="562" width="820" height="64" fill="#FFFFFF"/>
  <rect x="84" y="626" width="820" height="64" fill="#F8F9FA"/>

  <text x="98" y="468" fill="#222222" font-family="Arial, sans-serif" font-size="17">用户抱怨定价上涨后转向 Obsidian</text>
  <text x="280" y="468" fill="#222222" font-family="Arial, sans-serif" font-size="17">吐槽发泄</text>
  <text x="438" y="468" fill="#222222" font-family="Arial, sans-serif" font-size="17">价格讨论</text>
  <rect x="620" y="444" width="82" height="30" rx="15" fill="#F8D7DA"/>
  <text x="645" y="464" fill="#721C24" font-family="Arial, sans-serif" font-size="16" font-weight="700">负面</text>
  <text x="740" y="468" fill="#222222" font-family="Arial, sans-serif" font-size="17">梳理高频价格异议</text>

  <text x="98" y="532" fill="#222222" font-family="Arial, sans-serif" font-size="17">团队协作体验更顺，但离线功能仍弱</text>
  <text x="280" y="532" fill="#222222" font-family="Arial, sans-serif" font-size="17">经验分享</text>
  <text x="438" y="532" fill="#222222" font-family="Arial, sans-serif" font-size="17">功能对比</text>
  <rect x="620" y="508" width="82" height="30" rx="15" fill="#FFF3CD"/>
  <text x="645" y="528" fill="#856404" font-family="Arial, sans-serif" font-size="16" font-weight="700">混合</text>
  <text x="740" y="532" fill="#222222" font-family="Arial, sans-serif" font-size="17">补强离线卖点对比</text>

  <text x="98" y="596" fill="#222222" font-family="Arial, sans-serif" font-size="17">新人求推荐：Notion, Coda 还是 Obsidian？</text>
  <text x="280" y="596" fill="#222222" font-family="Arial, sans-serif" font-size="17">求推荐</text>
  <text x="438" y="596" fill="#222222" font-family="Arial, sans-serif" font-size="17">选型对比</text>
  <rect x="620" y="572" width="82" height="30" rx="15" fill="#E2E3E5"/>
  <text x="645" y="592" fill="#383D41" font-family="Arial, sans-serif" font-size="16" font-weight="700">中性</text>
  <text x="740" y="596" fill="#222222" font-family="Arial, sans-serif" font-size="17">提炼迁移决策点</text>

  <text x="98" y="660" fill="#222222" font-family="Arial, sans-serif" font-size="17">迁移到竞品的用户更看重本地优先与插件</text>
  <text x="280" y="660" fill="#222222" font-family="Arial, sans-serif" font-size="17">经验分享</text>
  <text x="438" y="660" fill="#222222" font-family="Arial, sans-serif" font-size="17">用户迁移</text>
  <rect x="620" y="636" width="82" height="30" rx="15" fill="#F8D7DA"/>
  <text x="645" y="656" fill="#721C24" font-family="Arial, sans-serif" font-size="16" font-weight="700">负面</text>
  <text x="740" y="660" fill="#222222" font-family="Arial, sans-serif" font-size="17">关注迁移触发原因</text>

  <rect x="956" y="308" width="380" height="476" rx="18" fill="#FFFFFF" stroke="#D9D1C5"/>
  <rect x="956" y="308" width="380" height="56" rx="18" fill="#1A1A2E"/>
  <text x="980" y="344" fill="#FFFFFF" font-family="Arial, sans-serif" font-size="22" font-weight="700">Sheet 2: summary view</text>

  <text x="980" y="396" fill="#222222" font-family="Arial, sans-serif" font-size="20" font-weight="700">Sentiment split</text>
  <rect x="980" y="418" width="240" height="22" rx="11" fill="#F1F1F3"/>
  <rect x="980" y="418" width="104" height="22" rx="11" fill="#F8D7DA"/>
  <rect x="1084" y="418" width="72" height="22" fill="#E2E3E5"/>
  <rect x="1156" y="418" width="64" height="22" rx="11" fill="#D4EDDA"/>
  <text x="1236" y="435" fill="#555555" font-family="Arial, sans-serif" font-size="16">Negative 43%</text>

  <text x="980" y="486" fill="#222222" font-family="Arial, sans-serif" font-size="20" font-weight="700">Top categories</text>
  <text x="980" y="520" fill="#555555" font-family="Arial, sans-serif" font-size="17">1. Pricing discussion</text>
  <text x="980" y="548" fill="#555555" font-family="Arial, sans-serif" font-size="17">2. User migration</text>
  <text x="980" y="576" fill="#555555" font-family="Arial, sans-serif" font-size="17">3. Feature comparison</text>

  <text x="980" y="636" fill="#222222" font-family="Arial, sans-serif" font-size="20" font-weight="700">Suggested actions</text>
  <text x="980" y="670" fill="#555555" font-family="Arial, sans-serif" font-size="17">- audit top price objections</text>
  <text x="980" y="698" fill="#555555" font-family="Arial, sans-serif" font-size="17">- compare offline sync expectations</text>
  <text x="980" y="726" fill="#555555" font-family="Arial, sans-serif" font-size="17">- track migration keywords weekly</text>
</svg>
